<svg xmlns="http://www.w3.org/2000/svg" xmlns:xlink="http://www.w3.org/1999/xlink" version="1.1" x="0px" y="0px" width="100px" height="100px" viewBox="0 0 100 100" enable-background="new 0 0 100 100" xml:space="preserve">
<g id="Captions">
</g>
<g id="Your_Icon">
	<path d="M88.444,31.889c-2.128-0.605-4.336,0.635-4.938,2.76L76.5,59.404H34.076l-7.045-29.748c-0.4-1.688-1.843-2.926-3.572-3.064   L12.964,25.75c-2.205-0.182-4.13,1.465-4.307,3.668c-0.176,2.201,1.465,4.129,3.667,4.307l7.594,0.609l7.104,29.992   c0.428,1.805,2.038,3.078,3.893,3.078h48.611c1.789,0,3.361-1.188,3.848-2.91l7.83-27.668C91.805,34.701,90.57,32.49,88.444,31.889   z"/>
	<path d="M33.418,87.127c4.258,0,7.723-3.465,7.723-7.723s-3.465-7.723-7.723-7.723c-4.259,0-7.723,3.465-7.723,7.723   S29.159,87.127,33.418,87.127z M33.418,79.127c0.152,0,0.277,0.125,0.277,0.277c0,0.154-0.125,0.277-0.277,0.277   c-0.153,0-0.277-0.123-0.277-0.277C33.141,79.252,33.265,79.127,33.418,79.127z"/>
	<path d="M76.297,71.682c-4.258,0-7.721,3.465-7.721,7.723s3.463,7.723,7.721,7.723s7.723-3.465,7.723-7.723   S80.555,71.682,76.297,71.682z M76.02,79.404c0-0.152,0.125-0.277,0.277-0.277c0.153,0,0.279,0.125,0.279,0.277   C76.576,79.709,76.02,79.713,76.02,79.404z"/>
	<path d="M58.096,13.229L35.764,25.188c-1.46,0.783-2.01,2.602-1.229,4.062l11.96,22.332c0.782,1.461,2.601,2.01,4.062,1.229   l22.332-11.959c1.461-0.783,2.012-2.602,1.229-4.062L62.158,14.457C61.375,12.996,59.557,12.447,58.096,13.229z"/>
</g>
</svg>